<svg xmlns="http://www.w3.org/2000/svg" xmlns:xlink="http://www.w3.org/1999/xlink" contentStyleType="text/css" height="268" preserveAspectRatio="none" style="width:1567px;height:268px;background:#FFFFFF;" version="1.1" viewBox="0 0 1567 268" width="1567" zoomAndPan="magnify"><defs/><g><!--entity A--><g id="elem_A"><rect fill="#E54871" height="45.1328" rx="2.5" ry="2.5" style="stroke:#7359CC;stroke-width:0.5;" width="198.1265" x="670.87" y="112.13"/><rect fill="#E54871" height="10" style="stroke:#7359CC;stroke-width:0.5;" width="15" x="848.9965" y="117.13"/><rect fill="#E54871" height="2" style="stroke:#7359CC;stroke-width:0.5;" width="4" x="846.9965" y="119.13"/><rect fill="#E54871" height="2" style="stroke:#7359CC;stroke-width:0.5;" width="4" x="846.9965" y="123.13"/><text fill="#FFFFFF" font-family="Inter" font-size="13" lengthAdjust="spacing" textLength="158.1265" x="685.87" y="144.1969">Panneau Photovoltaïque</text></g><!--entity ?nergie solaire--><g id="elem_Énergie solaire"><rect fill="#F0EEFF" height="45.1328" rx="2.5" ry="2.5" style="stroke:#7359CC;stroke-width:0.5;" width="137.0493" x="498.41" y="112.13"/><rect fill="#F0EEFF" height="10" style="stroke:#7359CC;stroke-width:0.5;" width="15" x="615.4593" y="117.13"/><rect fill="#F0EEFF" height="2" style="stroke:#7359CC;stroke-width:0.5;" width="4" x="613.4593" y="119.13"/><rect fill="#F0EEFF" height="2" style="stroke:#7359CC;stroke-width:0.5;" width="4" x="613.4593" y="123.13"/><text fill="#7664E1" font-family="Inter" font-size="13" lengthAdjust="spacing" textLength="97.0493" x="513.41" y="144.1969">Énergie solaire</text></g><!--entity Fournisseurs d'?lectricit?--><g id="elem_Fournisseurs d'électricité"><rect fill="#F0EEFF" height="45.1328" rx="2.5" ry="2.5" style="stroke:#7359CC;stroke-width:0.5;" width="203.3887" x="1065.24" y="112.13"/><rect fill="#F0EEFF" height="10" style="stroke:#7359CC;stroke-width:0.5;" width="15" x="1248.6287" y="117.13"/><rect fill="#F0EEFF" height="2" style="stroke:#7359CC;stroke-width:0.5;" width="4" x="1246.6287" y="119.13"/><rect fill="#F0EEFF" height="2" style="stroke:#7359CC;stroke-width:0.5;" width="4" x="1246.6287" y="123.13"/><text fill="#7664E1" font-family="Inter" font-size="13" lengthAdjust="spacing" textLength="163.3887" x="1080.24" y="144.1969">Fournisseurs d'électricité</text></g><!--entity Data Centers--><g id="elem_Data Centers"><rect fill="#F0EEFF" height="45.1328" rx="2.5" ry="2.5" style="stroke:#7359CC;stroke-width:0.5;" width="125.6997" x="904.09" y="112.13"/><rect fill="#F0EEFF" height="10" style="stroke:#7359CC;stroke-width:0.5;" width="15" x="1009.7897" y="117.13"/><rect fill="#F0EEFF" height="2" style="stroke:#7359CC;stroke-width:0.5;" width="4" x="1007.7897" y="119.13"/><rect fill="#F0EEFF" height="2" style="stroke:#7359CC;stroke-width:0.5;" width="4" x="1007.7897" y="123.13"/><text fill="#7664E1" font-family="Inter" font-size="13" lengthAdjust="spacing" textLength="85.6997" x="919.09" y="144.1969">Data Centers</text></g><!--entity M?t?o--><g id="elem_Météo"><rect fill="#F0EEFF" height="45.1328" rx="2.5" ry="2.5" style="stroke:#7359CC;stroke-width:0.5;" width="80.2632" x="582.81" y="7"/><rect fill="#F0EEFF" height="10" style="stroke:#7359CC;stroke-width:0.5;" width="15" x="643.0732" y="12"/><rect fill="#F0EEFF" height="2" style="stroke:#7359CC;stroke-width:0.5;" width="4" x="641.0732" y="14"/><rect fill="#F0EEFF" height="2" style="stroke:#7359CC;stroke-width:0.5;" width="4" x="641.0732" y="18"/><text fill="#7664E1" font-family="Inter" font-size="13" lengthAdjust="spacing" textLength="40.2632" x="597.81" y="39.0669">Météo</text></g><!--entity R?glementation--><g id="elem_Réglementation"><rect fill="#F0EEFF" height="45.1328" rx="2.5" ry="2.5" style="stroke:#7359CC;stroke-width:0.5;" width="143.7588" x="698.06" y="7"/><rect fill="#F0EEFF" height="10" style="stroke:#7359CC;stroke-width:0.5;" width="15" x="821.8188" y="12"/><rect fill="#F0EEFF" height="2" style="stroke:#7359CC;stroke-width:0.5;" width="4" x="819.8188" y="14"/><rect fill="#F0EEFF" height="2" style="stroke:#7359CC;stroke-width:0.5;" width="4" x="819.8188" y="18"/><text fill="#7664E1" font-family="Inter" font-size="13" lengthAdjust="spacing" textLength="103.7588" x="713.06" y="39.0669">Réglementation</text></g><!--entity R?seau ?lectrique--><g id="elem_Réseau électrique"><rect fill="#F0EEFF" height="45.1328" rx="2.5" ry="2.5" style="stroke:#7359CC;stroke-width:0.5;" width="157.438" x="877.22" y="7"/><rect fill="#F0EEFF" height="10" style="stroke:#7359CC;stroke-width:0.5;" width="15" x="1014.658" y="12"/><rect fill="#F0EEFF" height="2" style="stroke:#7359CC;stroke-width:0.5;" width="4" x="1012.658" y="14"/><rect fill="#F0EEFF" height="2" style="stroke:#7359CC;stroke-width:0.5;" width="4" x="1012.658" y="18"/><text fill="#7664E1" font-family="Inter" font-size="13" lengthAdjust="spacing" textLength="117.438" x="892.22" y="39.0669">Réseau électrique</text></g><!--entity Fabricants--><g id="elem_Fabricants"><rect fill="#F0EEFF" height="45.1328" rx="2.5" ry="2.5" style="stroke:#7359CC;stroke-width:0.5;" width="107.8755" x="7" y="217.27"/><rect fill="#F0EEFF" height="10" style="stroke:#7359CC;stroke-width:0.5;" width="15" x="94.8755" y="222.27"/><rect fill="#F0EEFF" height="2" style="stroke:#7359CC;stroke-width:0.5;" width="4" x="92.8755" y="224.27"/><rect fill="#F0EEFF" height="2" style="stroke:#7359CC;stroke-width:0.5;" width="4" x="92.8755" y="228.27"/><text fill="#7664E1" font-family="Inter" font-size="13" lengthAdjust="spacing" textLength="67.8755" x="22" y="249.3369">Fabricants</text></g><!--entity Techniciens--><g id="elem_Techniciens"><rect fill="#F0EEFF" height="45.1328" rx="2.5" ry="2.5" style="stroke:#7359CC;stroke-width:0.5;" width="116.9463" x="149.46" y="217.27"/><rect fill="#F0EEFF" height="10" style="stroke:#7359CC;stroke-width:0.5;" width="15" x="246.4063" y="222.27"/><rect fill="#F0EEFF" height="2" style="stroke:#7359CC;stroke-width:0.5;" width="4" x="244.4063" y="224.27"/><rect fill="#F0EEFF" height="2" style="stroke:#7359CC;stroke-width:0.5;" width="4" x="244.4063" y="228.27"/><text fill="#7664E1" font-family="Inter" font-size="13" lengthAdjust="spacing" textLength="76.9463" x="164.46" y="249.3369">Techniciens</text></g><!--entity Project Managers--><g id="elem_Project Managers"><rect fill="#F0EEFF" height="45.1328" rx="2.5" ry="2.5" style="stroke:#7359CC;stroke-width:0.5;" width="152.8804" x="301.5" y="217.27"/><rect fill="#F0EEFF" height="10" style="stroke:#7359CC;stroke-width:0.5;" width="15" x="434.3804" y="222.27"/><rect fill="#F0EEFF" height="2" style="stroke:#7359CC;stroke-width:0.5;" width="4" x="432.3804" y="224.27"/><rect fill="#F0EEFF" height="2" style="stroke:#7359CC;stroke-width:0.5;" width="4" x="432.3804" y="228.27"/><text fill="#7664E1" font-family="Inter" font-size="13" lengthAdjust="spacing" textLength="112.8804" x="316.5" y="249.3369">Project Managers</text></g><!--entity Onduleurs--><g id="elem_Onduleurs"><rect fill="#F0EEFF" height="45.1328" rx="2.5" ry="2.5" style="stroke:#7359CC;stroke-width:0.5;" width="106.9297" x="489.47" y="217.27"/><rect fill="#F0EEFF" height="10" style="stroke:#7359CC;stroke-width:0.5;" width="15" x="576.3997" y="222.27"/><rect fill="#F0EEFF" height="2" style="stroke:#7359CC;stroke-width:0.5;" width="4" x="574.3997" y="224.27"/><rect fill="#F0EEFF" height="2" style="stroke:#7359CC;stroke-width:0.5;" width="4" x="574.3997" y="228.27"/><text fill="#7664E1" font-family="Inter" font-size="13" lengthAdjust="spacing" textLength="66.9297" x="504.47" y="249.3369">Onduleurs</text></g><!--entity Monture--><g id="elem_Monture"><rect fill="#F0EEFF" height="45.1328" rx="2.5" ry="2.5" style="stroke:#7359CC;stroke-width:0.5;" width="94.0884" x="631.89" y="217.27"/><rect fill="#F0EEFF" height="10" style="stroke:#7359CC;stroke-width:0.5;" width="15" x="705.9784" y="222.27"/><rect fill="#F0EEFF" height="2" style="stroke:#7359CC;stroke-width:0.5;" width="4" x="703.9784" y="224.27"/><rect fill="#F0EEFF" height="2" style="stroke:#7359CC;stroke-width:0.5;" width="4" x="703.9784" y="228.27"/><text fill="#7664E1" font-family="Inter" font-size="13" lengthAdjust="spacing" textLength="54.0884" x="646.89" y="249.3369">Monture</text></g><!--entity Dispositifs de protection--><g id="elem_Dispositifs de protection"><rect fill="#F0EEFF" height="45.1328" rx="2.5" ry="2.5" style="stroke:#7359CC;stroke-width:0.5;" width="198.2534" x="760.81" y="217.27"/><rect fill="#F0EEFF" height="10" style="stroke:#7359CC;stroke-width:0.5;" width="15" x="939.0634" y="222.27"/><rect fill="#F0EEFF" height="2" style="stroke:#7359CC;stroke-width:0.5;" width="4" x="937.0634" y="224.27"/><rect fill="#F0EEFF" height="2" style="stroke:#7359CC;stroke-width:0.5;" width="4" x="937.0634" y="228.27"/><text fill="#7664E1" font-family="Inter" font-size="13" lengthAdjust="spacing" textLength="158.2534" x="775.81" y="249.3369">Dispositifs de protection</text></g><!--entity Batteries--><g id="elem_Batteries"><rect fill="#F0EEFF" height="45.1328" rx="2.5" ry="2.5" style="stroke:#7359CC;stroke-width:0.5;" width="98.8047" x="994.54" y="217.27"/><rect fill="#F0EEFF" height="10" style="stroke:#7359CC;stroke-width:0.5;" width="15" x="1073.3447" y="222.27"/><rect fill="#F0EEFF" height="2" style="stroke:#7359CC;stroke-width:0.5;" width="4" x="1071.3447" y="224.27"/><rect fill="#F0EEFF" height="2" style="stroke:#7359CC;stroke-width:0.5;" width="4" x="1071.3447" y="228.27"/><text fill="#7664E1" font-family="Inter" font-size="13" lengthAdjust="spacing" textLength="58.8047" x="1009.54" y="249.3369">Batteries</text></g><!--entity Compteurs--><g id="elem_Compteurs"><rect fill="#F0EEFF" height="45.1328" rx="2.5" ry="2.5" style="stroke:#7359CC;stroke-width:0.5;" width="111.3984" x="1128.24" y="217.27"/><rect fill="#F0EEFF" height="10" style="stroke:#7359CC;stroke-width:0.5;" width="15" x="1219.6384" y="222.27"/><rect fill="#F0EEFF" height="2" style="stroke:#7359CC;stroke-width:0.5;" width="4" x="1217.6384" y="224.27"/><rect fill="#F0EEFF" height="2" style="stroke:#7359CC;stroke-width:0.5;" width="4" x="1217.6384" y="228.27"/><text fill="#7664E1" font-family="Inter" font-size="13" lengthAdjust="spacing" textLength="71.3984" x="1143.24" y="249.3369">Compteurs</text></g><!--entity Transformateurs--><g id="elem_Transformateurs"><rect fill="#F0EEFF" height="45.1328" rx="2.5" ry="2.5" style="stroke:#7359CC;stroke-width:0.5;" width="148.2212" x="1274.83" y="217.27"/><rect fill="#F0EEFF" height="10" style="stroke:#7359CC;stroke-width:0.5;" width="15" x="1403.0512" y="222.27"/><rect fill="#F0EEFF" height="2" style="stroke:#7359CC;stroke-width:0.5;" width="4" x="1401.0512" y="224.27"/><rect fill="#F0EEFF" height="2" style="stroke:#7359CC;stroke-width:0.5;" width="4" x="1401.0512" y="228.27"/><text fill="#7664E1" font-family="Inter" font-size="13" lengthAdjust="spacing" textLength="108.2212" x="1289.83" y="249.3369">Transformateurs</text></g><!--entity Isolateurs--><g id="elem_Isolateurs"><rect fill="#F0EEFF" height="45.1328" rx="2.5" ry="2.5" style="stroke:#7359CC;stroke-width:0.5;" width="103.5908" x="1458.14" y="217.27"/><rect fill="#F0EEFF" height="10" style="stroke:#7359CC;stroke-width:0.5;" width="15" x="1541.7308" y="222.27"/><rect fill="#F0EEFF" height="2" style="stroke:#7359CC;stroke-width:0.5;" width="4" x="1539.7308" y="224.27"/><rect fill="#F0EEFF" height="2" style="stroke:#7359CC;stroke-width:0.5;" width="4" x="1539.7308" y="228.27"/><text fill="#7664E1" font-family="Inter" font-size="13" lengthAdjust="spacing" textLength="63.5908" x="1473.14" y="249.3369">Isolateurs</text></g><!--link ?nergie solaire to A--><g id="link_Énergie solaire_A"><path d="M635.93,134.7 C647.44,134.7 652.96,134.7 664.48,134.7 " fill="none" id="Énergie solaire-to-A" style="stroke:#C363A0;stroke-width:1;"/><polygon fill="#C363A0" points="670.48,134.7,661.48,130.7,665.48,134.7,661.48,138.7,670.48,134.7" style="stroke:#C363A0;stroke-width:1;"/></g><!--reverse link A to Fournisseurs d'?lectricit?--><g id="link_A_Fournisseurs d'électricité"><path d="M821.7573,109.1908 C847.1173,97.8508 874.01,87.87 904.44,82.13 C959.03,71.84 974.81,72.05 1029.44,82.13 C1060.48,87.86 1093.57,100.3 1119.51,111.64 " fill="none" id="A-backto-Fournisseurs d'électricité" style="stroke:#C363A0;stroke-width:1;"/><polygon fill="#C363A0" points="816.28,111.64,826.1288,111.6177,820.8444,109.599,822.8632,104.3146,816.28,111.64" style="stroke:#C363A0;stroke-width:1;"/></g><!--reverse link A to Data Centers--><g id="link_A_Data Centers"><path d="M875.21,134.7 C886.79,134.7 892.37,134.7 903.95,134.7 " fill="none" id="A-backto-Data Centers" style="stroke:#C363A0;stroke-width:1;"/><polygon fill="#C363A0" points="869.21,134.7,878.21,138.7,874.21,134.7,878.21,130.7,869.21,134.7" style="stroke:#C363A0;stroke-width:1;"/></g><!--link M?t?o to A--><g id="link_Météo_A"><path d="M654.11,52.44 C678.97,69.88 708.7286,90.7535 733.6386,108.2335 " fill="none" id="Météo-to-A" style="stroke:#C363A0;stroke-width:1;"/><polygon fill="#C363A0" points="738.55,111.68,733.4805,103.236,734.4572,108.8079,728.8853,109.7846,738.55,111.68" style="stroke:#C363A0;stroke-width:1;"/></g><!--link R?glementation to A--><g id="link_Réglementation_A"><path d="M769.94,52.44 C769.94,69.94 769.94,88.37 769.94,105.86 " fill="none" id="Réglementation-to-A" style="stroke:#C363A0;stroke-width:1;"/><polygon fill="#C363A0" points="769.94,111.86,773.94,102.86,769.94,106.86,765.94,102.86,769.94,111.86" style="stroke:#C363A0;stroke-width:1;"/></g><!--link R?seau ?lectrique to A--><g id="link_Réseau électrique_A"><path d="M916.49,52.44 C885.03,69.88 846.4171,91.2901 814.8971,108.7701 " fill="none" id="Réseau électrique-to-A" style="stroke:#C363A0;stroke-width:1;"/><polygon fill="#C363A0" points="809.65,111.68,819.4606,110.8132,814.0226,109.2551,815.5808,103.8171,809.65,111.68" style="stroke:#C363A0;stroke-width:1;"/></g><!--reverse link A to Fabricants--><g id="link_A_Fabricants"><path d="M664.5208,155.4915 C658.6108,156.4715 658.66,156.41 652.94,157.27 C422.42,191.75 360.15,169.87 131.94,217.27 C126.51,218.39 120.91,219.75 115.34,221.23 " fill="none" id="A-backto-Fabricants" style="stroke:#C363A0;stroke-width:1;"/><polygon fill="#C363A0" points="670.44,154.51,660.9069,152.0362,665.5074,155.3279,662.2156,159.9284,670.44,154.51" style="stroke:#C363A0;stroke-width:1;"/></g><!--reverse link A to Techniciens--><g id="link_A_Techniciens"><path d="M664.4828,155.2513 C658.5828,156.3013 658.64,156.28 652.94,157.27 C489.23,185.66 446.13,181.19 283.94,217.27 C278.31,218.52 272.49,219.94 266.68,221.44 " fill="none" id="A-backto-Techniciens" style="stroke:#C363A0;stroke-width:1;"/><polygon fill="#C363A0" points="670.39,154.2,660.8284,151.8388,665.4673,155.0761,662.2301,159.715,670.39,154.2" style="stroke:#C363A0;stroke-width:1;"/></g><!--reverse link A to Project Managers--><g id="link_A_Project Managers"><path d="M680.5174,159.2264 C611.9374,177.2664 521.44,201.08 454.77,218.62 " fill="none" id="A-backto-Project Managers" style="stroke:#C363A0;stroke-width:1;"/><polygon fill="#C363A0" points="686.32,157.7,676.5985,156.1212,681.4845,158.972,678.6337,163.858,686.32,157.7" style="stroke:#C363A0;stroke-width:1;"/></g><!--reverse link A to Onduleurs--><g id="link_A_Onduleurs"><path d="M716.0573,160.1817 C677.6473,177.6317 629.67,199.43 591.28,216.87 " fill="none" id="A-backto-Onduleurs" style="stroke:#C363A0;stroke-width:1;"/><polygon fill="#C363A0" points="721.52,157.7,711.6715,157.7808,716.9678,159.7681,714.9805,165.0644,721.52,157.7" style="stroke:#C363A0;stroke-width:1;"/></g><!--reverse link A to Monture--><g id="link_A_Monture"><path d="M746.6704,162.0692 C731.2304,179.5692 713.64,199.5 698.21,216.99 " fill="none" id="A-backto-Monture" style="stroke:#C363A0;stroke-width:1;"/><polygon fill="#C363A0" points="750.64,157.57,741.6862,161.6724,747.332,161.3193,747.6851,166.9651,750.64,157.57" style="stroke:#C363A0;stroke-width:1;"/></g><!--reverse link A to Dispositifs de protection--><g id="link_A_Dispositifs de protection"><path d="M792.9663,162.0896 C808.2463,179.5896 825.61,199.5 840.88,216.99 " fill="none" id="A-backto-Dispositifs de protection" style="stroke:#C363A0;stroke-width:1;"/><polygon fill="#C363A0" points="789.02,157.57,791.9263,166.9803,792.3086,161.3363,797.9525,161.7186,789.02,157.57" style="stroke:#C363A0;stroke-width:1;"/></g><!--reverse link A to Batteries--><g id="link_A_Batteries"><path d="M833.9956,159.8131 C883.3456,178.3831 947.63,202.58 994.3,220.15 " fill="none" id="A-backto-Batteries" style="stroke:#C363A0;stroke-width:1;"/><polygon fill="#C363A0" points="828.38,157.7,835.3946,164.6134,833.0597,159.4609,838.2121,157.1259,828.38,157.7" style="stroke:#C363A0;stroke-width:1;"/></g><!--reverse link A to Compteurs--><g id="link_A_Compteurs"><path d="M873.8778,159.0728 C942.2078,174.7628 1029.49,195.51 1110.94,217.27 C1116.43,218.73 1122.13,220.32 1127.83,221.93 " fill="none" id="A-backto-Compteurs" style="stroke:#C363A0;stroke-width:1;"/><polygon fill="#C363A0" points="868.03,157.73,875.9065,163.6427,872.9032,158.849,877.6969,155.8456,868.03,157.73" style="stroke:#C363A0;stroke-width:1;"/></g><!--reverse link A to Transformateurs--><g id="link_A_Transformateurs"><path d="M875.3875,155.2496 C881.2975,156.2996 881.24,156.28 886.94,157.27 C1051.09,185.7 1093.52,184.9 1256.94,217.27 C1262.65,218.4 1268.55,219.63 1274.47,220.91 " fill="none" id="A-backto-Transformateurs" style="stroke:#C363A0;stroke-width:1;"/><polygon fill="#C363A0" points="869.48,154.2,877.6415,159.7127,874.4029,155.0746,879.0409,151.836,869.48,154.2" style="stroke:#C363A0;stroke-width:1;"/></g><!--reverse link A to Isolateurs--><g id="link_A_Isolateurs"><path d="M875.3524,155.522 C881.2624,156.482 881.22,156.43 886.94,157.27 C1132,193.07 1198.48,166.75 1440.94,217.27 C1446.47,218.42 1452.18,219.83 1457.85,221.38 " fill="none" id="A-backto-Isolateurs" style="stroke:#C363A0;stroke-width:1;"/><polygon fill="#C363A0" points="869.43,154.56,877.6722,159.9513,874.3653,155.3617,878.9549,152.0548,869.43,154.56" style="stroke:#C363A0;stroke-width:1;"/></g><!--SRC=[PL91Rjim4Bpp5Oluq5FG68xjjZ04A8e5vE3MI7CpSjX8QucDjAkIL0qqo0Fo59_w27sib1t5KQGRPsPdbaFPHyqL6YpX0PF7p4ZDQII56DZbsf5IzasGI5a94pjuKW2niFkf_nAC9_vqrHzUBC8Aavo204RnnN8Pnwr6J4fcoCVHT1w-Edx7ak267HdL7e-RZEQpsULotBVmw6JwDOhKCFrTPcYCx4x6fKzrgiDVnT5aDWaltekxWCEddjKcl0UqSBP8MkBRePbWZSo4DQnpSV972eVDlzyrBJuVHC4PZ9RJoo_piL9gqxmmcKmJM2bG6xg7SwEpt9q7uBtL9fRQiBQMQcCX_TJi2qgSqObspTvh2zg-IQ_H8KJKLcJxbDgichqV40-dikDkuhRPPmMLVWIT5Xwojhr6b-cly44HuuDV1TcrUNNLmNUKvEnN9ExZQoE_l1Eia34xBdaYVt1Q5-qjU-ZATruVMZbXrzfMOhNJMzy8GMN4UTVZ_YVL5JfVXAQ-N-J_L3T8kJF8TYkcn25tqpxCH_W_]--></g></svg>