<svg xmlns="http://www.w3.org/2000/svg" xmlns:xlink="http://www.w3.org/1999/xlink" contentStyleType="text/css" height="393" preserveAspectRatio="none" style="width:1444px;height:393px;background:#FFFFFF;" version="1.1" viewBox="0 0 1444 393" width="1444" zoomAndPan="magnify"><defs><linearGradient id="g6eb7jvqqeizg0" x1="0%" x2="100%" y1="0%" y2="100%"><stop offset="0%" stop-color="#C363A0"/><stop offset="100%" stop-color="#C363A0"/></linearGradient></defs><g><line style="stroke:#181818;stroke-width:0.5;stroke-dasharray:5.0,5.0;" x1="147" x2="147" y1="35.1328" y2="359.4609"/><line style="stroke:#181818;stroke-width:0.5;stroke-dasharray:5.0,5.0;" x1="574.3398" x2="574.3398" y1="35.1328" y2="359.4609"/><line style="stroke:#181818;stroke-width:0.5;stroke-dasharray:5.0,5.0;" x1="827.1707" x2="827.1707" y1="35.1328" y2="359.4609"/><line style="stroke:#181818;stroke-width:0.5;stroke-dasharray:5.0,5.0;" x1="1082.7795" x2="1082.7795" y1="35.1328" y2="359.4609"/><line style="stroke:#181818;stroke-width:0.5;stroke-dasharray:5.0,5.0;" x1="1329.1624" x2="1329.1624" y1="35.1328" y2="359.4609"/><rect fill="url(#g6eb7jvqqeizg0)" height="29.1328" rx="2.5" ry="2.5" style="stroke:#7359CC;stroke-width:0.5;" width="284.7148" x="5" y="5"/><text fill="#FFFFFF" font-family="Inter" font-size="13" lengthAdjust="spacing" textLength="270.7148" x="12" y="24.0669">Panneau photovoltaïque / Environnement</text><rect fill="url(#g6eb7jvqqeizg0)" height="29.1328" rx="2.5" ry="2.5" style="stroke:#7359CC;stroke-width:0.5;" width="284.7148" x="5" y="358.4609"/><text fill="#FFFFFF" font-family="Inter" font-size="13" lengthAdjust="spacing" textLength="270.7148" x="12" y="377.5278">Panneau photovoltaïque / Environnement</text><rect fill="#F3F1FF" height="29.1328" rx="2.5" ry="2.5" style="stroke:#7359CC;stroke-width:0.5;" width="176.0303" x="486.3398" y="5"/><text fill="#5448A2" font-family="Inter" font-size="13" lengthAdjust="spacing" textLength="162.0303" x="493.3398" y="24.0669">Capter l'énergie solaire()</text><rect fill="#F3F1FF" height="29.1328" rx="2.5" ry="2.5" style="stroke:#7359CC;stroke-width:0.5;" width="176.0303" x="486.3398" y="358.4609"/><text fill="#5448A2" font-family="Inter" font-size="13" lengthAdjust="spacing" textLength="162.0303" x="493.3398" y="377.5278">Capter l'énergie solaire()</text><rect fill="#F3F1FF" height="29.1328" rx="2.5" ry="2.5" style="stroke:#7359CC;stroke-width:0.5;" width="237.6089" x="709.1707" y="5"/><text fill="#5448A2" font-family="Inter" font-size="13" lengthAdjust="spacing" textLength="223.6089" x="716.1707" y="24.0669">Gérer les données de production()</text><rect fill="#F3F1FF" height="29.1328" rx="2.5" ry="2.5" style="stroke:#7359CC;stroke-width:0.5;" width="237.6089" x="709.1707" y="358.4609"/><text fill="#5448A2" font-family="Inter" font-size="13" lengthAdjust="spacing" textLength="223.6089" x="716.1707" y="377.5278">Gérer les données de production()</text><rect fill="#F3F1FF" height="29.1328" rx="2.5" ry="2.5" style="stroke:#7359CC;stroke-width:0.5;" width="253.3828" x="956.7795" y="5"/><text fill="#5448A2" font-family="Inter" font-size="13" lengthAdjust="spacing" textLength="239.3828" x="963.7795" y="24.0669">Produire de la puissance électrique()</text><rect fill="#F3F1FF" height="29.1328" rx="2.5" ry="2.5" style="stroke:#7359CC;stroke-width:0.5;" width="253.3828" x="956.7795" y="358.4609"/><text fill="#5448A2" font-family="Inter" font-size="13" lengthAdjust="spacing" textLength="239.3828" x="963.7795" y="377.5278">Produire de la puissance électrique()</text><rect fill="#F3F1FF" height="29.1328" rx="2.5" ry="2.5" style="stroke:#7359CC;stroke-width:0.5;" width="218.6167" x="1220.1624" y="5"/><text fill="#5448A2" font-family="Inter" font-size="13" lengthAdjust="spacing" textLength="204.6167" x="1227.1624" y="24.0669">Distribuer l'énergie électrique()</text><rect fill="#F3F1FF" height="29.1328" rx="2.5" ry="2.5" style="stroke:#7359CC;stroke-width:0.5;" width="218.6167" x="1220.1624" y="358.4609"/><text fill="#5448A2" font-family="Inter" font-size="13" lengthAdjust="spacing" textLength="204.6167" x="1227.1624" y="377.5278">Distribuer l'énergie électrique()</text><polygon fill="#C363A0" points="562.355,62.2656,572.355,66.2656,562.355,70.2656,566.355,66.2656" style="stroke:#C363A0;stroke-width:1;"/><line style="stroke:#C363A0;stroke-width:1;" x1="147.3574" x2="568.355" y1="66.2656" y2="66.2656"/><text fill="#222222" font-family="sans-serif" font-size="13" lengthAdjust="spacing" textLength="151.8867" x="154.3574" y="61.1997">Capter l'énergie solaire</text><polygon fill="#C363A0" points="1071.4709,91.3984,1081.4709,95.3984,1071.4709,99.3984,1075.4709,95.3984" style="stroke:#C363A0;stroke-width:1;"/><line style="stroke:#C363A0;stroke-width:1;" x1="574.355" x2="1077.4709" y1="95.3984" y2="95.3984"/><text fill="#222222" font-family="sans-serif" font-size="13" lengthAdjust="spacing" textLength="168.5112" x="581.355" y="90.3325">Convertir l'énergie solaire</text><polygon fill="#C363A0" points="815.9751,120.5313,825.9751,124.5313,815.9751,128.5313,819.9751,124.5313" style="stroke:#C363A0;stroke-width:1;"/><line style="stroke:#C363A0;stroke-width:1;" x1="574.355" x2="821.9751" y1="124.5313" y2="124.5313"/><text fill="#222222" font-family="sans-serif" font-size="13" lengthAdjust="spacing" textLength="229.6201" x="581.355" y="119.4653">Mesurer les données de production</text><polygon fill="#C363A0" points="158.3574,149.6641,148.3574,153.6641,158.3574,157.6641,154.3574,153.6641" style="stroke:#C363A0;stroke-width:1;"/><line style="stroke:#C363A0;stroke-width:1;" x1="152.3574" x2="826.9751" y1="153.6641" y2="153.6641"/><text fill="#222222" font-family="sans-serif" font-size="13" lengthAdjust="spacing" textLength="404.79" x="164.3574" y="148.5981">Envoyer les données de production au système de monitoring</text><polygon fill="#C363A0" points="158.3574,178.7969,148.3574,182.7969,158.3574,186.7969,154.3574,182.7969" style="stroke:#C363A0;stroke-width:1;"/><line style="stroke:#C363A0;stroke-width:1;" x1="152.3574" x2="826.9751" y1="182.7969" y2="182.7969"/><text fill="#222222" font-family="sans-serif" font-size="13" lengthAdjust="spacing" textLength="329.7734" x="164.3574" y="177.731">Mettre à jour les informations toutes les 5 minutes</text><polygon fill="#C363A0" points="838.9751,207.9297,828.9751,211.9297,838.9751,215.9297,834.9751,211.9297" style="stroke:#C363A0;stroke-width:1;"/><line style="stroke:#C363A0;stroke-width:1;" x1="832.9751" x2="1328.4707" y1="211.9297" y2="211.9297"/><text fill="#222222" font-family="sans-serif" font-size="13" lengthAdjust="spacing" textLength="210.6533" x="844.9751" y="206.8638">Transmettre l'énergie électrique</text><polygon fill="#C363A0" points="1317.4707,237.0625,1327.4707,241.0625,1317.4707,245.0625,1321.4707,241.0625" style="stroke:#C363A0;stroke-width:1;"/><line style="stroke:#C363A0;stroke-width:1;" x1="1083.4709" x2="1323.4707" y1="241.0625" y2="241.0625"/><text fill="#222222" font-family="sans-serif" font-size="13" lengthAdjust="spacing" textLength="188.0303" x="1090.4709" y="235.9966">Collecter l'énergie électrique</text><polygon fill="#C363A0" points="158.3574,266.1953,148.3574,270.1953,158.3574,274.1953,154.3574,270.1953" style="stroke:#C363A0;stroke-width:1;"/><line style="stroke:#C363A0;stroke-width:1;" x1="152.3574" x2="1328.4707" y1="270.1953" y2="270.1953"/><text fill="#222222" font-family="sans-serif" font-size="13" lengthAdjust="spacing" textLength="207.9429" x="164.3574" y="265.1294">Diriger l'énergie vers le cablage</text><polygon fill="#C363A0" points="158.3574,295.3281,148.3574,299.3281,158.3574,303.3281,154.3574,299.3281" style="stroke:#C363A0;stroke-width:1;"/><line style="stroke:#C363A0;stroke-width:1;" x1="152.3574" x2="826.9751" y1="299.3281" y2="299.3281"/><text fill="#222222" font-family="sans-serif" font-size="13" lengthAdjust="spacing" textLength="331.0747" x="164.3574" y="294.2622">Vérification de la performance (Si &lt; 80% : Alarme)</text><line style="stroke:#C363A0;stroke-width:1;" x1="147.3574" x2="189.3574" y1="328.4609" y2="328.4609"/><line style="stroke:#C363A0;stroke-width:1;" x1="189.3574" x2="189.3574" y1="328.4609" y2="341.4609"/><line style="stroke:#C363A0;stroke-width:1;" x1="148.3574" x2="189.3574" y1="341.4609" y2="341.4609"/><polygon fill="#C363A0" points="158.3574,337.4609,148.3574,341.4609,158.3574,345.4609,154.3574,341.4609" style="stroke:#C363A0;stroke-width:1;"/><text fill="#222222" font-family="sans-serif" font-size="13" lengthAdjust="spacing" textLength="412.9976" x="154.3574" y="323.395">Résister à des conditions environnementales (vent, neige, etc.)</text><!--SRC=[bLB1Jjj04BtxAqQWgeb4IuX9IoE4b8Quwe4AbQhtPNS8K-pTxUuw2Ah-Iu_DgH_X7-kixI1R3OXUhFNCc_Tcteo_8Ms54mL8KrYZKGVuaG1aHeSBkaSuIDk_Jw90-AW3EWxCd3EtSvCR1xlpz4qw6ss24TecnkDnyZD9_8E4a87Zpw3la3omlnVoPkbCgLMRoKQBHPRjju2U47y3IRBYUTDqv2Q7XqTY7EMCK-ZQwDjqycu-tzf4cXrasNywadJxspcMCJdTlRscW2VdGciK9TXh4ypAv45KVxwN2Fkmq2joXhC5Bsa7X0ThOIEsiQ77F1UM1uJyPRNMw9Q4u4qkoE5WMDTBsST_gDOkuj63Og5g7Hy8rXbLoa16jtLAzUlE8u1f8pWNO4loNcY9KArpbC4H3z2MMelzsbFo3BWi-tt-MwWGsJSBhqwuRPZ2exCbd6OG2qMKqIjajMr0Q91AJU4CVVdqv8bI3IkJyYBCtPDeu0NwEn-gtqLjIc4qyUcJNdPvpZ04RgFw1TzCsT2HlZAk4973Gp1bu5YCJw0W7VyIzY4ICCqKlZYXVT6mR3SlYJP4E3Pkv37pgDKRyhgxKtAqx4FPojWEI76PYoLsP_dAfqDN9ElMDtU0hfucNiBWWk0OZaOl63lBXIjms6wpBlzShJqV0ikn6ue7baOhQcp0xjsBwCPWnQyzqCWDxW46-Nhu5m00]--></g></svg>