<svg xmlns="http://www.w3.org/2000/svg" xmlns:xlink="http://www.w3.org/1999/xlink" contentStyleType="text/css" height="662.0272" preserveAspectRatio="none" style="width:355px;height:662px;background:#FFFFFF;" version="1.1" viewBox="0 0 355 662" width="355.0303" zoomAndPan="magnify"><defs><linearGradient id="g20hijzg26got0" x1="0%" x2="100%" y1="0%" y2="100%"><stop offset="0%" stop-color="#F3F1FF"/><stop offset="100%" stop-color="#F3F1FF"/></linearGradient></defs><g><!--cluster Conception--><g id="cluster_Conception"><path d="M135.3223,56.3872 L220.9472,56.3872 A8.7017,8.7017 0 0 1 229.6489,65.0889 L229.6489,70.4024 L126.6205,70.4024 L126.6205,65.0889 A8.7017,8.7017 0 0 1 135.3223,56.3872 " fill="url(#g20hijzg26got0)" style="stroke:url(#g20hijzg26got0);stroke-width:0.6961;"/><rect fill="none" height="148.2774" rx="8.7017" ry="8.7017" style="stroke:#7359CC;stroke-width:0.3481;" width="103.0284" x="126.6205" y="56.3872"/><line style="stroke:#7359CC;stroke-width:0.3481;" x1="126.6205" x2="229.6489" y1="70.4024" y2="70.4024"/><text fill="#5448A2" font-family="Inter" font-size="9.0498" lengthAdjust="spacing" textLength="51.2144" x="152.5275" y="67.5719">Conception</text></g><ellipse cx="175.3502" cy="92.5863" fill="#222222" rx="6.9614" ry="6.9614" style="stroke:#222222;stroke-width:0.6961;"/><g id="Conception.Installation"><rect fill="url(#g20hijzg26got0)" height="34.8069" rx="8.7017" ry="8.7017" style="stroke:#7359CC;stroke-width:0.3481;" width="64.0457" x="143.3278" y="153.1503"/><line style="stroke:#7359CC;stroke-width:0.3481;" x1="143.3278" x2="207.3735" y1="170.6462" y2="170.6462"/><text fill="#5448A2" font-family="Inter" font-size="9.0498" lengthAdjust="spacing" textLength="50.123" x="150.2892" y="165.0313">Installation</text></g><path d="M13.5747,254.0903 L337.1214,254.0903 A8.7017,8.7017 0 0 1 345.8232,262.7921 L345.8232,271.5862 L4.873,271.5862 L4.873,262.7921 A8.7017,8.7017 0 0 1 13.5747,254.0903 " fill="url(#g20hijzg26got0)" style="stroke:url(#g20hijzg26got0);stroke-width:0.6961;"/><rect fill="none" height="243.8332" rx="8.7017" ry="8.7017" style="stroke:#7359CC;stroke-width:0.3481;" width="340.9502" x="4.873" y="254.0903"/><line style="stroke:#7359CC;stroke-width:0.3481;" x1="4.873" x2="345.8232" y1="271.5862" y2="271.5862"/><text fill="#5448A2" font-family="Inter" font-size="9.0498" lengthAdjust="spacing" textLength="20.4151" x="165.1405" y="265.9713">Actif</text><path d="M52.997,423.3443 L183.683,423.3443 A8.7017,8.7017 0 0 1 192.3848,432.046 L192.3848,440.8402 L44.2953,440.8402 L44.2953,432.046 A8.7017,8.7017 0 0 1 52.997,423.3443 " fill="url(#g20hijzg26got0)" style="stroke:url(#g20hijzg26got0);stroke-width:0.6961;"/><rect fill="none" height="67.6178" rx="8.7017" ry="8.7017" style="stroke:#7359CC;stroke-width:0.3481;" width="148.0895" x="44.2953" y="423.3443"/><line style="stroke:#7359CC;stroke-width:0.3481;" x1="44.2953" x2="192.3848" y1="440.8402" y2="440.8402"/><text fill="#5448A2" font-family="Inter" font-size="9.0498" lengthAdjust="spacing" textLength="48.3952" x="94.1424" y="435.2252">Monitoring</text><g id="Actif.Monitoring.Mesure"><rect fill="url(#g20hijzg26got0)" height="34.8069" rx="8.7017" ry="8.7017" style="stroke:#7359CC;stroke-width:0.3481;" width="47.0376" x="52.6489" y="449.1939"/><line style="stroke:#7359CC;stroke-width:0.3481;" x1="52.6489" x2="99.6865" y1="466.6898" y2="466.6898"/><text fill="#5448A2" font-family="Inter" font-size="9.0498" lengthAdjust="spacing" textLength="33.1148" x="59.6103" y="461.0748">Mesure</text></g><g id="Actif.Monitoring.Transmission"><rect fill="url(#g20hijzg26got0)" height="34.8069" rx="8.7017" ry="8.7017" style="stroke:#7359CC;stroke-width:0.3481;" width="73.7141" x="112.4054" y="449.1939"/><line style="stroke:#7359CC;stroke-width:0.3481;" x1="112.4054" x2="186.1195" y1="466.6898" y2="466.6898"/><text fill="#5448A2" font-family="Inter" font-size="9.0498" lengthAdjust="spacing" textLength="59.7914" x="119.3668" y="461.0748">Transmission</text></g><!--link Mesure to Transmission--><g id="link_Mesure_Transmission"><path d="M99.8679,466.5973 C103.9821,466.5973 103.9195,466.5973 108.0406,466.5973 " fill="none" id="Mesure-to-Transmission" style="stroke:#C363A0;stroke-width:0.6961;"/><polygon fill="#C363A0" points="112.2174,466.5973,105.9522,463.8128,108.7367,466.5973,105.9522,469.3819,112.2174,466.5973" style="stroke:#C363A0;stroke-width:0.6961;"/></g><ellipse cx="19.4919" cy="369.0456" fill="#222222" rx="6.9614" ry="6.9614" style="stroke:#222222;stroke-width:0.6961;"/><g id="Actif.Producteur"><rect fill="url(#g20hijzg26got0)" height="34.8069" rx="8.7017" ry="8.7017" style="stroke:#7359CC;stroke-width:0.3481;" width="63.6657" x="185.3606" y="351.6421"/><line style="stroke:#7359CC;stroke-width:0.3481;" x1="185.3606" x2="249.0263" y1="369.138" y2="369.138"/><text fill="#5448A2" font-family="Inter" font-size="9.0498" lengthAdjust="spacing" textLength="49.7429" x="192.322" y="363.523">Producteur</text></g><g id="Actif.Récepteur"><rect fill="url(#g20hijzg26got0)" height="34.8069" rx="8.7017" ry="8.7017" style="stroke:#7359CC;stroke-width:0.3481;" width="60.6388" x="186.8782" y="279.9399"/><line style="stroke:#7359CC;stroke-width:0.3481;" x1="186.8782" x2="247.517" y1="297.4358" y2="297.4358"/><text fill="#5448A2" font-family="Inter" font-size="9.0498" lengthAdjust="spacing" textLength="46.716" x="193.8396" y="291.8208">Récepteur</text></g><!--link *start*Actif to Monitoring--><g id="link_*start*Actif_Monitoring"><path d="M17.7167,375.8886 C15.6353,384.472 13.2684,400.1699 20.188,410.8138 C26.2305,420.1073 31.1655,425.3273 40.6191,431.2654 " fill="none" id="*start*Actif-to-Monitoring" style="stroke:#C363A0;stroke-width:0.6961;"/><polygon fill="#C363A0" points="44.156,433.487,40.3317,427.7966,41.2086,431.6357,37.3695,432.5125,44.156,433.487" style="stroke:#C363A0;stroke-width:0.6961;"/><text fill="#000000" font-family="sans-serif" font-size="9.0498" lengthAdjust="spacing" textLength="180.4877" x="20.8841" y="408.0759">Déclencher des mesures manuellement</text></g><!--link Producteur to Monitoring--><g id="link_Producteur_Monitoring"><path d="M213.77,386.7623 C211.4728,394.7679 207.7624,404.0265 201.88,410.8138 C198.0373,415.2482 196.9249,416.7243 192.2259,420.4695 " fill="none" id="Producteur-to-Monitoring" style="stroke:#C363A0;stroke-width:0.6961;"/><polygon fill="#C363A0" points="188.9597,423.0728,195.5946,421.3453,191.6816,420.9034,192.1235,416.9903,188.9597,423.0728" style="stroke:#C363A0;stroke-width:0.6961;"/><text fill="#000000" font-family="sans-serif" font-size="9.0498" lengthAdjust="spacing" textLength="128.6281" x="210.2337" y="408.0759">Produire l'énergie électrique</text></g><!--link R?cepteur to Producteur--><g id="link_Récepteur_Producteur"><path d="M217.195,315.0601 C217.195,326.1147 217.195,336.2853 217.195,347.3052 " fill="none" id="Récepteur-to-Producteur" style="stroke:#C363A0;stroke-width:0.6961;"/><polygon fill="#C363A0" points="217.195,351.482,219.9796,345.2168,217.195,348.0013,214.4105,345.2168,217.195,351.482" style="stroke:#C363A0;stroke-width:0.6961;"/><text fill="#000000" font-family="sans-serif" font-size="9.0498" lengthAdjust="spacing" textLength="105.7341" x="217.8912" y="336.3736">Capter l'énergie solaire</text></g><path d="M123.5506,540.391 L227.1393,540.391 A8.7017,8.7017 0 0 1 235.841,549.0927 L235.841,557.8869 L114.8488,557.8869 L114.8488,549.0927 A8.7017,8.7017 0 0 1 123.5506,540.391 " fill="url(#g20hijzg26got0)" style="stroke:url(#g20hijzg26got0);stroke-width:0.6961;"/><rect fill="none" height="117.7398" rx="8.7017" ry="8.7017" style="stroke:#7359CC;stroke-width:0.3481;" width="120.9922" x="114.8488" y="540.391"/><line style="stroke:#7359CC;stroke-width:0.3481;" x1="114.8488" x2="235.841" y1="557.8869" y2="557.8869"/><text fill="#5448A2" font-family="Inter" font-size="9.0498" lengthAdjust="spacing" textLength="62.7388" x="143.9756" y="552.2719">Obsolescence</text><ellipse cx="167.3221" cy="572.5058" fill="#222222" rx="6.9614" ry="6.9614" style="stroke:#222222;stroke-width:0.6961;"/><ellipse cx="135.2998" cy="633.7659" fill="none" rx="7.6575" ry="7.6575" style="stroke:#222222;stroke-width:0.6961;"/><ellipse cx="135.2998" cy="633.7659" fill="#222222" rx="4.1768" ry="4.1768" style="stroke:#222222;stroke-width:0.6961;"/><g id="Obsolescence.Recyclage"><rect fill="url(#g20hijzg26got0)" height="34.8069" rx="8.7017" ry="8.7017" style="stroke:#7359CC;stroke-width:0.3481;" width="60.4576" x="169.1182" y="616.3625"/><line style="stroke:#7359CC;stroke-width:0.3481;" x1="169.1182" x2="229.5758" y1="633.8584" y2="633.8584"/><text fill="#5448A2" font-family="Inter" font-size="9.0498" lengthAdjust="spacing" textLength="46.5348" x="176.0796" y="628.2434">Recyclage</text></g><!--link *start*Obsolescence to *end*Obsolescence--><g id="link_*start*Obsolescence_*end*Obsolescence"><path d="M160.6531,575.0676 C153.1488,577.5598 141.3214,582.7669 135.9959,591.9977 C129.863,602.6207 130.7886,613.426 132.6264,622.0511 " fill="none" id="*start*Obsolescence-to-*end*Obsolescence" style="stroke:#C363A0;stroke-width:0.6961;"/><polygon fill="#C363A0" points="133.4968,626.1363,134.9146,619.4283,132.7714,622.732,129.4677,620.5889,133.4968,626.1363" style="stroke:#C363A0;stroke-width:0.6961;"/><text fill="#000000" font-family="sans-serif" font-size="9.0498" lengthAdjust="spacing" textLength="52.5666" x="136.6921" y="601.094">Destruction</text></g><!--link *start*Obsolescence to Recyclage--><g id="link_*start*Obsolescence_Recyclage"><path d="M173.1697,576.613 C178.2863,579.9057 185.5192,585.3635 189.5986,591.9977 C194.0538,599.2375 195.775,604.2312 197.0907,612.0349 " fill="none" id="*start*Obsolescence-to-Recyclage" style="stroke:#C363A0;stroke-width:0.6961;"/><polygon fill="#C363A0" points="197.7851,616.1536,199.4893,609.5127,197.2065,612.7214,193.9977,610.4385,197.7851,616.1536" style="stroke:#C363A0;stroke-width:0.6961;"/></g><ellipse cx="224.0798" cy="11.1382" fill="#222222" rx="6.9614" ry="6.9614" style="stroke:#222222;stroke-width:0.6961;"/><!--link *start* to Conception--><g id="link_*start*_Conception"><path d="M224.0798,18.385 C224.0798,23.0909 224.0798,29.9322 224.0798,37.5728 C224.0798,41.3932 224.0798,45.4133 224.0798,49.4664 C224.0798,51.4929 224.0798,53.5276 224.0798,55.5496 C224.0798,55.8024 224.0798,51.8781 224.0798,52.1304 " fill="none" id="*start*-to-Conception" style="stroke:#C363A0;stroke-width:0.6961;"/><polygon fill="#C363A0" points="224.0798,56.3072,226.8644,50.042,224.0798,52.8266,221.2953,50.042,224.0798,56.3072" style="stroke:#C363A0;stroke-width:0.6961;"/></g><!--link *start*Conception to Installation--><g id="link_*start*Conception_Installation"><path d="M175.3502,99.8123 C175.3502,111.4586 175.3502,131.9808 175.3502,148.7159 " fill="none" id="*start*Conception-to-Installation" style="stroke:#C363A0;stroke-width:0.6961;"/><polygon fill="#C363A0" points="175.3502,152.8928,178.1347,146.6275,175.3502,149.4121,172.5656,146.6275,175.3502,152.8928" style="stroke:#C363A0;stroke-width:0.6961;"/><text fill="#000000" font-family="sans-serif" font-size="9.0498" lengthAdjust="spacing" textLength="25.9961" x="176.0463" y="129.5282">Achat</text></g><!--link Installation to Actif--><g id="link_Installation_Actif"><path d="M200.8636,188.18 C211.438,196.7355 222.5553,208.1244 228.2567,221.3719 C232.7468,231.8209 234.5981,238.6159 234.3962,249.6845 " fill="none" id="Installation-to-Actif" style="stroke:#C363A0;stroke-width:0.6961;"/><polygon fill="#C363A0" points="234.32,253.8606,237.2184,247.6472,234.3835,250.3805,231.6502,247.5456,234.32,253.8606" style="stroke:#C363A0;stroke-width:0.6961;"/><text fill="#000000" font-family="sans-serif" font-size="9.0498" lengthAdjust="spacing" textLength="72.0227" x="231.7374" y="230.4682">Mise en marche</text></g><!--link Actif to Installation--><g id="link_Actif_Installation"><path d="M97.3619,253.9302 C94.6817,247.0594 92.3288,240.1328 90.4214,233.2062 C82.8404,205.7644 112.0795,190.0869 139.1662,180.9953 " fill="none" id="Actif-to-Installation" style="stroke:#C363A0;stroke-width:0.6961;"/><polygon fill="#C363A0" points="143.126,179.6662,136.3003,179.02,139.8262,180.7738,138.0724,184.2997,143.126,179.6662" style="stroke:#C363A0;stroke-width:0.6961;"/><text fill="#000000" font-family="sans-serif" font-size="9.0498" lengthAdjust="spacing" textLength="131.3988" x="91.1175" y="230.4682">Maintenance / ajout de pièce</text></g><!--link Actif to Obsolescence--><g id="link_Actif_Obsolescence"><path d="M175.3502,498.0171 C175.3502,512.6847 175.3502,522.9388 175.3502,536.0749 " fill="none" id="Actif-to-Obsolescence" style="stroke:#C363A0;stroke-width:0.6961;"/><polygon fill="#C363A0" points="175.3502,540.2518,178.1347,533.9865,175.3502,536.7711,172.5656,533.9865,175.3502,540.2518" style="stroke:#C363A0;stroke-width:0.6961;"/></g><!--SRC=[RL5DIyD04BttLmnu48HYQre_UX1g9D13LQetyJ1kndRjPhVERYWg_X_xE_h7d4qJJD4biEoyDs_Ul7Y5XY0Pzc2jyx3enEENsgwGiG0VC11yTW0oPyEz_Y3e9_8QCxjrwenZE4YJqsJSgoatM11CR22MmfNZdBYcdIN3YpIjQNLjE1YSuqbaebhEsPKshv4ioVfPTbpVdIznzNZq1Dtk9QJEAbe5xInqTlvQbMYr8KwimCPW1OnWh1OO1DuhHzvO1VqYXAds16IXG5OBYbjMm3zIKzIoeaKP2yU0hwuCa1EizFPRKJIxyxNhRrkQEgk3OstdedAztIX3LcQnT7ieo9SSRxGb6KC5sUZtZbrUga0b_vMeCCq4vd2xiSHpJR3T65A1zLiPTvZ94CccwMw9ZI150RZTwvr1aPEqeVxthN5naUPCAwyWYW-CrXVQUub62BAyVB_9tJwB9dabUrAJIxks5q-y9HVoWSLa9TX0CrBlok2SG0Ry0000]--></g></svg>